<?xml version="1.0" encoding="iso-8859-1"?>
<!-- Generator: Adobe Illustrator 19.0.0, SVG Export Plug-In . SVG Version: 6.00 Build 0)  -->
<svg version="1.1" id="Layer_1" xmlns="http://www.w3.org/2000/svg" xmlns:xlink="http://www.w3.org/1999/xlink" x="0px" y="0px"
	 viewBox="0 0 512.001 512.001" style="enable-background:new 0 0 512.001 512.001;" xml:space="preserve">
<g>
	<g>
		<path fill="#eee" d="M220.337,111.909h-53.355c-9.963,0-18.04,8.077-18.04,18.04c0,9.963,8.076,18.04,18.04,18.04h53.355
			c9.963,0,18.04-8.077,18.04-18.04S230.3,111.909,220.337,111.909z"/>
	</g>
</g>
<g>
	<g>
		<path fill="#eee" d="M220.337,180.188h-53.355c-9.963,0-18.04,8.077-18.04,18.04c0,9.963,8.076,18.04,18.04,18.04h53.355
			c9.963,0,18.04-8.077,18.04-18.04C238.377,188.266,230.3,180.188,220.337,180.188z"/>
	</g>
</g>
<g>
	<g>
		<path fill="#eee" d="M220.337,316.749h-53.355c-9.963,0-18.04,8.077-18.04,18.04c0,9.963,8.077,18.04,18.04,18.04h53.355
			c9.963,0,18.04-8.077,18.04-18.04C238.377,324.827,230.3,316.749,220.337,316.749z"/>
	</g>
</g>
<g>
	<g>
		<path fill="#eee" d="M220.337,385.03h-53.355c-9.963,0-18.04,8.077-18.04,18.04c0,9.963,8.077,18.04,18.04,18.04h53.355
			c9.963,0,18.04-8.077,18.04-18.04C238.377,393.107,230.3,385.03,220.337,385.03z"/>
	</g>
</g>
<g>
	<g>
		<path fill="#eee" d="M472.481,43.629c-10.19,0-85.999,0-96.202,0l4.951-21.543c2.231-9.71-3.832-19.391-13.541-21.623
			c-9.716-2.232-19.392,3.832-21.623,13.541l-6.808,29.625H87.549h-48.03c-9.963,0-18.04,8.077-18.04,18.04s8.077,18.04,18.04,18.04
			H69.51v383.683c0,26.803,21.806,48.608,48.608,48.608h275.765c26.803,0,48.608-21.806,48.608-48.608V79.709h29.99
			c9.963,0,18.04-8.077,18.04-18.04C490.521,51.705,482.444,43.629,472.481,43.629z M105.589,79.709h225.377L292.182,248.47H105.589
			V79.709z M406.409,463.394c0,6.907-5.62,12.526-12.527,12.526H118.117c-6.908,0-12.528-5.62-12.528-12.528V284.549h178.302
			l-10.617,46.199c-5.362,23.325,29.779,31.504,35.164,8.082l12.474-54.28h85.498V463.394z M406.409,248.469h-77.207l38.784-168.761
			h38.423V248.469z"/>
	</g>
</g>
<g>
	<g>
		<circle fill="#eee" cx="334.679" cy="404.47" r="36.752"/>
	</g>
</g>
<g>
</g>
<g>
</g>
<g>
</g>
<g>
</g>
<g>
</g>
<g>
</g>
<g>
</g>
<g>
</g>
<g>
</g>
<g>
</g>
<g>
</g>
<g>
</g>
<g>
</g>
<g>
</g>
<g>
</g>
</svg>
